<svg id="Layer_1" data-name="Layer 1" xmlns="http://www.w3.org/2000/svg" viewBox="0 0 383.76 383.76"><title>quote_icon copy 4</title><g id="_Group_" data-name="&lt;Group&gt;"><g id="_Group_2" data-name="&lt;Group&gt;"><path d="M194.56,31.61c-43.17,0-91.52,16.23-101.67,69.62-1,5.68,3.18,8.61,6.88,9.44l44.05,4.72c4.09-.2,7.1-4.17,7.86-8.26,3.77-18.39,19.27-27.34,36.58-27.34,9.33,0,19.81,3.44,25.37,11.8,6.33,9.32,5.51,22.24,5.51,33v5.9c-26.31,3-60.69,4.87-85.35,15.73-28.42,12.26-48.38,37.29-48.38,74.14,0,47.2,29.65,70.8,67.85,70.8,32.31,0,50-7.62,74.92-33,8.3,11.94,11.08,17.77,26.16,30.29A9.32,9.32,0,0,0,265,287.26l.21.2c9.07-8,25.55-22.36,34.8-30.09,3.7-3.07,2.94-8.11,0-12.19-8.3-11.49-17.11-20.82-17.11-42.08V132.5c0-30,2.24-57.64-19.86-78.27-17.43-16.74-46.34-22.62-68.44-22.62Zm24.58,135.3v9.83c0,17.69.48,32.47-8.45,48.18-7.22,12.77-18.69,20.45-31.46,20.45-17.43,0-27.53-13.23-27.53-32.84C151.69,173.83,186.31,166.91,219.14,166.91ZM348.93,269.16c-12.88.17-28.21,3.11-39.72,11.21-3.56,2.47-3,6,1,5.5,13-1.54,42.06-5,47.19,1.58s-5.76,33.68-10.62,45.81c-1.48,3.68,1.6,5.14,4.92,2.37,21.64-18.08,27.22-55.89,22.81-61.36C372.29,271.56,361.81,269,348.93,269.16ZM10.1,276.44c-2.39.6-3.27,3.67-.59,6.09,48,43.38,111.58,69.62,182.1,69.62,50.29,0,108.56-15.92,148.86-45.62,6.67-5,1.12-12.34-5.7-9.44a362.91,362.91,0,0,1-139,28.51c-66.2,0-130.27-18.22-182.1-48.38a5.35,5.35,0,0,0-2.36-.79H10.1Z"/></g></g></svg>