<svg id="Layer_1" data-name="Layer 1" xmlns="http://www.w3.org/2000/svg" viewBox="0 0 383.76 383.76"><defs><style>.cls-1{fill:#231f20;}</style></defs><title>linkedin_logo</title><path class="cls-1" d="M337.54,25.44H52.16c-13.64,0-24.72,10.81-24.72,24.13V336.16c0,13.34,11.08,24.16,24.72,24.16H337.54c13.66,0,24.79-10.83,24.79-24.16V49.57C362.33,36.25,351.2,25.44,337.54,25.44ZM126.76,310.8H77.09V151h49.67ZM101.94,129.14a28.8,28.8,0,1,1,28.78-28.8A28.8,28.8,0,0,1,101.94,129.14ZM312.8,310.8H263.17V233.08c0-18.53-.34-42.37-25.81-42.37-25.84,0-29.81,20.19-29.81,41V310.8H157.92V151h47.64v21.84h.67c6.63-12.56,22.83-25.81,47-25.81,50.3,0,59.58,33.1,59.58,76.13Z"/></svg>