<svg id="Layer_1" data-name="Layer 1" xmlns="http://www.w3.org/2000/svg" viewBox="0 0 512 512"><title>Logo</title><path d="M256,10C120.14,10,10,120.14,10,256S120.14,502,256,502,502,391.86,502,256,391.86,10,256,10ZM191.15,319H109.21v-5.61h25.42V201.22h-7.82c-19.33,0-31.63,19.74-36.6,39.25H84.61V195.61H191.15Zm5.61,0V195.61h56V319Zm117.85,0H258.46l0-123.36h56.17Zm112.49-78.5h-5.61c-5-19.51-17.71-39.25-37-39.25h-7.82v50.47h5.61c5.5,0,15.23-4.16,16.82-22.43h5.61v56.07h-5.61c-1.59-19.33-11.32-28-16.82-28h-5.61v56.07h9.06c9.63,0,30.32-9.94,35.8-41.66h5.61V319h-107V195.61h107Z"/></svg>