<svg id="Layer_1" data-name="Layer 1" xmlns="http://www.w3.org/2000/svg" viewBox="0 0 383.76 383.76"><title>pinterest_logo</title><path d="M191.66,10a181.85,181.85,0,0,0-66.27,351.19c-1.59-14.39-3-36.46.63-52.16,3.3-14.19,21.32-90.39,21.32-90.39s-5.44-10.89-5.44-27c0-25.29,14.66-44.16,32.9-44.16,15.51,0,23,11.65,23,25.62,0,15.6-9.93,38.93-15.06,60.55-4.28,18.1,9.08,32.86,26.93,32.86,32.32,0,57.17-34.08,57.17-83.27,0-43.54-31.29-74-76-74-51.74,0-82.11,38.81-82.11,78.92,0,15.63,6,32.39,13.53,41.5a5.44,5.44,0,0,1,1.26,5.22c-1.38,5.74-4.45,18.1-5.05,20.62-.79,3.33-2.64,4-6.08,2.43-22.71-10.57-36.91-43.78-36.91-70.45,0-57.36,41.68-110,120.15-110,63.08,0,112.11,45,112.11,105,0,62.67-39.52,113.11-94.36,113.11-18.43,0-35.75-9.57-41.68-20.88,0,0-9.12,34.72-11.33,43.23-4.11,15.8-15.19,35.6-22.6,47.67A181.87,181.87,0,1,0,191.66,10Z"/></svg>