<svg id="Layer_1" data-name="Layer 1" xmlns="http://www.w3.org/2000/svg" viewBox="0 0 383.76 383.76"><title>quora_logo</title><g id="Fill-1"><path d="M203,293.63c-12.6-24.8-27.38-49.85-56.22-49.85A38.52,38.52,0,0,0,130.73,247l-9.8-19.61C132.88,217.14,152.17,209,177,209c38.57,0,58.37,18.58,74.09,42.3,9.33-20.25,13.76-47.59,13.76-81.49,0-84.64-26.47-128.11-88.3-128.11-60.93,0-87.26,43.46-87.26,128.11C89.25,254,115.58,297,176.51,297A94.15,94.15,0,0,0,203,293.63Zm15.1,29.54a162,162,0,0,1-41.62,5.56C95.37,328.72,15.93,264,15.93,169.83c0-95,79.44-159.8,160.58-159.8,82.5,0,161.17,64.29,161.17,159.8,0,53.13-24.79,96.3-60.82,124.2,11.64,17.44,23.63,29,40.31,29,18.21,0,25.56-14.07,26.79-25.11h23.72c1.39,14.7-6,75.78-72.25,75.78-40.15,0-61.38-23.27-77.3-50.56Z"/></g></svg>