<svg id="Layer_1" data-name="Layer 1" xmlns="http://www.w3.org/2000/svg" viewBox="0 0 383.76 383.76"><title>twitter_logo</title><path d="M120.69,347.82c144.82,0,224-120,224-224,0-3.41-.07-6.8-.23-10.18a160.19,160.19,0,0,0,39.28-40.77,157.16,157.16,0,0,1-45.22,12.39A79,79,0,0,0,373.17,41.7a157.78,157.78,0,0,1-50,19.11A78.8,78.8,0,0,0,189,132.62,223.53,223.53,0,0,1,26.71,50.36,78.8,78.8,0,0,0,51.08,155.47a78.16,78.16,0,0,1-35.66-9.85c0,.33,0,.66,0,1a78.77,78.77,0,0,0,63.17,77.19A78.61,78.61,0,0,1,43,225.16a78.82,78.82,0,0,0,73.55,54.69,158,158,0,0,1-97.79,33.7A160.28,160.28,0,0,1,0,312.46a222.9,222.9,0,0,0,120.69,35.37"/></svg>